<?xml version="1.0" encoding="UTF-8" standalone="no"?>
<!-- Created with Inkscape (http://www.inkscape.org/) -->

<svg
   xmlns:dc="http://purl.org/dc/elements/1.1/"
   xmlns:cc="http://creativecommons.org/ns#"
   xmlns:rdf="http://www.w3.org/1999/02/22-rdf-syntax-ns#"
   xmlns:svg="http://www.w3.org/2000/svg"
   xmlns="http://www.w3.org/2000/svg"
   xmlns:xlink="http://www.w3.org/1999/xlink"
   version="1.1"
   width="31.696165"
   height="32.18644"
   id="svg8034">
  <defs
     id="defs8036">
    <linearGradient
       id="linearGradient11896">
      <stop
         id="stop11898"
         style="stop-color:#f4c1cb;stop-opacity:1"
         offset="0" />
      <stop
         id="stop11900"
         style="stop-color:#979797;stop-opacity:0"
         offset="1" />
    </linearGradient>
    <linearGradient
       id="linearGradient8956">
      <stop
         id="stop8958"
         style="stop-color:#f0a8b5;stop-opacity:1"
         offset="0" />
      <stop
         id="stop8960"
         style="stop-color:#979797;stop-opacity:0"
         offset="1" />
    </linearGradient>
    <linearGradient
       x1="118.16977"
       y1="182.04565"
       x2="117.43655"
       y2="163.47818"
       id="linearGradient8446"
       xlink:href="#linearGradient8956"
       gradientUnits="userSpaceOnUse"
       gradientTransform="translate(113.57143,-17.5)" />
    <linearGradient
       x1="118.16977"
       y1="182.04565"
       x2="117.43655"
       y2="163.47818"
       id="linearGradient11834"
       xlink:href="#linearGradient11896"
       gradientUnits="userSpaceOnUse"
       gradientTransform="translate(33.90561,7.7511451)" />
    <linearGradient
       x1="118.16977"
       y1="182.04565"
       x2="117.43655"
       y2="163.47818"
       id="linearGradient12124"
       xlink:href="#linearGradient11896-8"
       gradientUnits="userSpaceOnUse"
       gradientTransform="translate(-86.916903,-213.35878)" />
    <linearGradient
       id="linearGradient11896-8">
      <stop
         id="stop11898-5"
         style="stop-color:#f4c1cb;stop-opacity:1"
         offset="0" />
      <stop
         id="stop11900-7"
         style="stop-color:#979797;stop-opacity:0"
         offset="1" />
    </linearGradient>
  </defs>
  <metadata
     id="metadata8039">
    <rdf:RDF>
      <cc:Work
         rdf:about="">
        <dc:format>image/svg+xml</dc:format>
        <dc:type
           rdf:resource="http://purl.org/dc/dcmitype/StillImage" />
        <dc:title></dc:title>
      </cc:Work>
    </rdf:RDF>
  </metadata>
  <g
     transform="translate(-97.339819,-648.52053)"
     id="layer1">
    <g
       transform="translate(-31.634796,348.60813)"
       id="g7379">
      <path
         d="m 249.11331,164.48911 c 0,0 -15.42603,-18.98051 -15.42603,-18.98051 0,0 -15.24528,0 -15.24528,0 0,0 6.05192,18.98051 6.05192,18.98051 0,0 24.61939,0 24.61939,0"
         id="path6243"
         style="fill:url(#linearGradient8446);fill-opacity:1;stroke:none" />
      <path
         d="m 222.20781,157.31923 c 0,0 14.70474,7.16988 14.70474,7.16988"
         id="path6253"
         style="fill:none;stroke:#333333;stroke-width:1px;stroke-linecap:round;stroke-linejoin:round;stroke-opacity:1" />
      <path
         d="m 219.88451,150.03271 c 0,0 7.37191,3.5188 7.37191,3.5188"
         id="path6255"
         style="fill:none;stroke:#333333;stroke-width:1px;stroke-linecap:round;stroke-linejoin:round;stroke-opacity:1" />
      <path
         d="m 222.62434,145.5086 c 0,0 3.72816,3.35035 3.72816,3.35035"
         id="path6257"
         style="fill:none;stroke:#333333;stroke-width:1px;stroke-linecap:round;stroke-linejoin:round;stroke-opacity:1" />
      <path
         d="m 229.20139,145.5086 c 0,0 7.25081,3.40201 7.25081,3.40201"
         id="path6259"
         style="fill:none;stroke:#333333;stroke-width:1px;stroke-linecap:round;stroke-linejoin:round;stroke-opacity:1" />
      <path
         d="m 226.3525,148.85895 c 0,0 2.84889,-3.35035 2.84889,-3.35035"
         id="path6261"
         style="fill:none;stroke:#333333;stroke-width:1px;stroke-linecap:round;stroke-linejoin:round;stroke-opacity:1" />
      <path
         d="m 219.88451,150.03271 c 0,0 2.73983,-4.52411 2.73983,-4.52411"
         id="path6263"
         style="fill:none;stroke:#333333;stroke-width:1px;stroke-linecap:round;stroke-linejoin:round;stroke-opacity:1" />
      <path
         d="m 227.25642,153.55151 c 0,0 -0.90392,-4.69256 -0.90392,-4.69256"
         id="path6265"
         style="fill:none;stroke:#333333;stroke-width:1px;stroke-linecap:round;stroke-linejoin:round;stroke-opacity:1" />
      <path
         d="m 219.88451,150.03271 c 0,0 6.46799,-1.17376 6.46799,-1.17376"
         id="path6267"
         style="fill:none;stroke:#333333;stroke-width:1px;stroke-linecap:round;stroke-linejoin:round;stroke-opacity:1" />
      <path
         d="m 227.25642,153.55151 c 0,0 4.8109,-2.49683 4.8109,-2.49683"
         id="path6269"
         style="fill:none;stroke:#333333;stroke-width:1px;stroke-linecap:round;stroke-linejoin:round;stroke-opacity:1" />
      <path
         d="m 222.20781,157.31923 c 0,0 5.04861,-3.76772 5.04861,-3.76772"
         id="path6271"
         style="fill:none;stroke:#333333;stroke-width:1px;stroke-linecap:round;stroke-linejoin:round;stroke-opacity:1" />
      <path
         d="m 236.91255,164.48911 c 0,0 0.005,-7.48846 0.005,-7.48846"
         id="path6273"
         style="fill:none;stroke:#333333;stroke-width:1px;stroke-linecap:round;stroke-linejoin:round;stroke-opacity:1" />
      <path
         d="m 249.11331,164.48911 c 0,0 -12.19576,-7.48846 -12.19576,-7.48846"
         id="path6275"
         style="fill:none;stroke:#333333;stroke-width:1px;stroke-linecap:round;stroke-linejoin:round;stroke-opacity:1" />
      <path
         d="m 236.91255,164.48911 c 0,0 -9.65613,-10.9376 -9.65613,-10.9376"
         id="path6277"
         style="fill:none;stroke:#333333;stroke-width:1px;stroke-linecap:round;stroke-linejoin:round;stroke-opacity:1" />
      <path
         d="m 236.91755,157.00065 c 0,0 -4.85023,-5.94597 -4.85023,-5.94597"
         id="path6279"
         style="fill:none;stroke:#333333;stroke-width:1px;stroke-linecap:round;stroke-linejoin:round;stroke-opacity:1" />
      <path
         d="m 227.25642,153.55151 c 0,0 9.66113,3.44914 9.66113,3.44914"
         id="path6281"
         style="fill:none;stroke:#333333;stroke-width:1px;stroke-linecap:round;stroke-linejoin:round;stroke-opacity:1" />
      <path
         d="m 226.3525,148.85895 c 0,0 5.71482,2.19573 5.71482,2.19573"
         id="path6283"
         style="fill:none;stroke:#333333;stroke-width:1px;stroke-linecap:round;stroke-linejoin:round;stroke-opacity:1" />
      <path
         d="m 229.20139,145.5086 c 0,0 2.86593,5.54608 2.86593,5.54608"
         id="path6285"
         style="fill:none;stroke:#333333;stroke-width:1px;stroke-linecap:round;stroke-linejoin:round;stroke-opacity:1" />
      <path
         d="m 236.4522,148.91061 c 0,0 -4.38488,2.14407 -4.38488,2.14407"
         id="path6287"
         style="fill:none;stroke:#333333;stroke-width:1px;stroke-linecap:round;stroke-linejoin:round;stroke-opacity:1" />
      <path
         d="m 240.97317,154.47331 c 0,0 -8.90585,-3.41863 -8.90585,-3.41863"
         id="path6289"
         style="fill:none;stroke:#333333;stroke-width:1px;stroke-linecap:round;stroke-linejoin:round;stroke-opacity:1" />
      <path
         d="m 236.91755,157.00065 c 0,0 4.05562,-2.52734 4.05562,-2.52734"
         id="path6291"
         style="fill:none;stroke:#333333;stroke-width:1px;stroke-linecap:round;stroke-linejoin:round;stroke-opacity:1" />
      <path
         d="m 249.11331,164.48911 c 0,0 -15.42603,-18.98051 -15.42603,-18.98051 0,0 -15.24528,0 -15.24528,0 0,0 6.05192,18.98051 6.05192,18.98051 0,0 24.61939,0 24.61939,0"
         id="path6770"
         style="fill:none;stroke:#333333;stroke-width:1.5;stroke-linecap:round;stroke-linejoin:round;stroke-miterlimit:4;stroke-opacity:1;stroke-dasharray:none" />
      <path
         d="m 115.66247,17.352787 -2.41465,2.917561 1.50094,3.390817 -3.52094,-1.394889 -2.76104,2.475294 0.23859,-3.779649 -3.20735,-1.861002 3.66838,-0.941063 0.7788,-3.625456 2.02859,3.19804 z"
         transform="matrix(2.0364103,0.02416911,-0.02416911,2.0364103,12.583599,101.72801)"
         id="path3956"
         style="fill:#fffd00;fill-opacity:1;stroke:#f8a70a;stroke-width:0.98205119;stroke-linejoin:round;stroke-miterlimit:4;stroke-opacity:1;stroke-dasharray:none" />
      <path
         d="m 169.44749,189.74026 c 0,0 -15.42603,-18.98051 -15.42603,-18.98051 0,0 -15.24528,0 -15.24528,0 0,0 6.05192,18.98051 6.05192,18.98051 0,0 24.61939,0 24.61939,0"
         id="path11832"
         style="fill:url(#linearGradient11834);fill-opacity:1;stroke:none" />
      <path
         d="m 144.81736,189.74726 c 0,0 4.31235,0 4.31235,0 0,0 8.21399,0 8.21399,0 0,0 12.11564,0 12.11564,0 0,0 -5.77508,-7.10423 -5.77508,-7.10423 0,0 -5.02132,-6.177 -5.02132,-6.177 0,0 -4.64436,-5.71328 -4.64436,-5.71328 0,0 -7.75425,0 -7.75425,0 0,0 -7.5,0 -7.5,0 0,0 1.09674,3.44161 1.09674,3.44161 0,0 1.83867,5.76977 1.83867,5.76977 0,0 3.11762,9.78313 3.11762,9.78313"
         id="path9100"
         style="fill:none;stroke:#000000;stroke-width:1;stroke-linecap:round;stroke-linejoin:round;stroke-miterlimit:4;stroke-opacity:1;stroke-dasharray:none" />
      <path
         d="M 15.404826,19.399039 4.2931483,11.696626 17.425131,12.706778 z"
         transform="translate(138.25302,170.22833)"
         id="path11753"
         style="fill:none;stroke:#000000;stroke-width:1px;stroke-linecap:round;stroke-linejoin:round;stroke-opacity:1" />
      <path
         d="M 30.935922,19.399039 17.551401,12.706778 20.329316,6.7721319"
         transform="translate(138.25302,170.22833)"
         id="path11755"
         style="fill:none;stroke:#000000;stroke-width:1px;stroke-linecap:round;stroke-linejoin:round;stroke-opacity:1" />
      <path
         d="M 17.298862,12.45424 10.227795,5.5094412 4.4194174,11.570356"
         transform="translate(138.25302,170.22833)"
         id="path11757"
         style="fill:none;stroke:#000000;stroke-width:1px;stroke-linecap:round;stroke-linejoin:round;stroke-opacity:1" />
      <path
         d="M 10.480333,5.7619793 2.1465742,3.8679433 7.1973369,0.58494753 z"
         transform="translate(138.25302,170.22833)"
         id="path11759"
         style="fill:none;stroke:#000000;stroke-width:1px;stroke-linecap:round;stroke-linejoin:round;stroke-opacity:1" />
      <path
         d="M 20.455589,6.3933247 10.606602,5.7619793 15.909899,0.7112166"
         transform="translate(138.25302,170.22833)"
         id="path11761"
         style="fill:none;stroke:#000000;stroke-width:1px;stroke-linecap:round;stroke-linejoin:round;stroke-opacity:1" />
      <g
         transform="translate(111.52969,362.9677)"
         id="g12015"
         style="stroke-width:1;stroke-miterlimit:4;stroke-dasharray:none">
        <path
           d="m 48.624977,-31.369676 c 0,0 -15.42603,-18.98051 -15.42603,-18.98051 0,0 -15.24528,0 -15.24528,0 0,0 6.05192,18.98051 6.05192,18.98051 0,0 24.61939,0 24.61939,0"
           id="path11832-1"
           style="fill:url(#linearGradient12124);fill-opacity:1;stroke:none" />
        <path
           d="m 23.994847,-31.362676 c 0,0 4.31235,0 4.31235,0 0,0 8.21399,0 8.21399,0 0,0 12.11564,0 12.11564,0 0,0 -5.77508,-7.10423 -5.77508,-7.10423 0,0 -5.02132,-6.177 -5.02132,-6.177 0,0 -4.64436,-5.71328 -4.64436,-5.71328 0,0 -7.75425,0 -7.75425,0 0,0 -7.5,0 -7.5,0 0,0 1.09674,3.44161 1.09674,3.44161 0,0 1.83867,5.76977 1.83867,5.76977 0,0 3.11762,9.78313 3.11762,9.78313"
           id="path9100-9"
           style="fill:none;stroke:#000000;stroke-width:1;stroke-linecap:round;stroke-linejoin:round;stroke-miterlimit:4;stroke-opacity:1;stroke-dasharray:none" />
        <path
           d="m 32.835337,-31.482566 -11.111678,-7.70241 13.131983,1.01015 z"
           id="path11753-0"
           style="fill:none;stroke:#000000;stroke-width:1px;stroke-linecap:round;stroke-linejoin:round;stroke-opacity:1" />
        <path
           d="m 48.366433,-31.482566 -13.384521,-6.69226 2.777915,-5.93464"
           id="path11755-3"
           style="fill:none;stroke:#000000;stroke-width:1px;stroke-linecap:round;stroke-linejoin:round;stroke-opacity:1" />
        <path
           d="m 34.729373,-38.427366 -7.071067,-6.94479 -5.808378,6.06091"
           id="path11757-0"
           style="fill:none;stroke:#000000;stroke-width:1px;stroke-linecap:round;stroke-linejoin:round;stroke-opacity:1" />
        <path
           d="m 27.910844,-45.119626 -8.333759,-1.89403 5.050763,-3.283 z"
           id="path11759-1"
           style="fill:none;stroke:#000000;stroke-width:1px;stroke-linecap:round;stroke-linejoin:round;stroke-opacity:1" />
        <path
           d="m 37.8861,-44.488276 -9.848987,-0.63135 5.303297,-5.05076"
           id="path11761-5"
           style="fill:none;stroke:#000000;stroke-width:1px;stroke-linecap:round;stroke-linejoin:round;stroke-opacity:1" />
      </g>
      <path
         d="m 115.66247,17.352787 -2.41465,2.917561 1.50094,3.390817 -3.52094,-1.394889 -2.76104,2.475294 0.23859,-3.779649 -3.20735,-1.861002 3.66838,-0.941063 0.7788,-3.625456 2.02859,3.19804 z"
         transform="matrix(2.0364103,0.02416911,-0.02416911,2.0364103,-76.386898,268.68511)"
         id="path3956-3"
         style="fill:#fffd00;fill-opacity:1;stroke:#f8a70a;stroke-width:0.98205119;stroke-linejoin:round;stroke-miterlimit:4;stroke-opacity:1;stroke-dasharray:none" />
    </g>
  </g>
</svg>
